<?xml version="1.0" standalone="no"?>
<!DOCTYPE svg PUBLIC "-//W3C//DTD SVG 20010904//EN"
 "http://www.w3.org/TR/2001/REC-SVG-20010904/DTD/svg10.dtd">
<svg version="1.0" xmlns="http://www.w3.org/2000/svg"
 width="1914.000000pt" height="800.000000pt" viewBox="0 0 1914.000000 800.000000"
 preserveAspectRatio="xMidYMid meet">

<g transform="translate(0.000000,800.000000) scale(0.100000,-0.100000)"
fill="#000000" stroke="none">
<path d="M3475 5322 c-51 -24 -78 -54 -107 -117 l-23 -50 -3 -1014 c-3 -1146
-6 -1087 71 -1165 55 -54 109 -70 221 -64 113 6 167 37 211 123 l30 59 3 448
3 448 459 0 460 0 0 -414 c0 -238 4 -436 10 -467 25 -132 110 -199 253 -199
44 0 97 5 118 11 50 16 105 61 132 112 l22 42 3 1024 c3 1136 5 1089 -63 1168
-51 60 -101 76 -223 71 -112 -4 -145 -19 -195 -88 -52 -73 -57 -120 -57 -512
l0 -358 -460 0 -460 0 0 363 c0 389 -4 433 -51 502 -13 19 -42 48 -63 63 -36
24 -48 27 -145 30 -88 2 -113 -1 -146 -16z"/>
<path d="M8595 5330 c-189 -30 -352 -101 -458 -200 -125 -118 -185 -246 -194
-415 -8 -161 24 -280 105 -388 121 -159 292 -244 702 -348 277 -70 357 -105
433 -189 54 -60 71 -116 65 -209 -9 -117 -71 -196 -206 -259 -129 -61 -280
-63 -406 -4 -113 53 -163 114 -241 293 -76 175 -118 209 -257 209 -103 0 -154
-21 -197 -80 -103 -142 -24 -402 182 -596 90 -86 175 -136 293 -174 146 -47
211 -55 434 -55 159 0 224 4 289 18 323 69 531 238 618 502 23 71 27 96 27
220 1 108 -3 154 -18 200 -61 202 -205 345 -439 435 -79 31 -247 81 -487 145
-284 75 -390 154 -390 289 0 129 113 236 283 267 81 15 193 1 260 -32 62 -32
127 -106 182 -209 68 -128 121 -185 186 -200 60 -15 166 -8 206 14 96 50 140
165 109 284 -27 108 -65 170 -156 263 -72 74 -99 93 -180 132 -152 74 -228 88
-475 92 -115 2 -237 0 -270 -5z"/>
<path d="M10285 5320 c-43 -21 -79 -67 -101 -127 -11 -31 -13 -230 -14 -1068
0 -661 4 -1043 10 -1066 14 -52 49 -100 90 -123 30 -18 52 -21 147 -21 108 0
113 1 154 30 26 18 53 50 68 80 l26 49 6 466 c7 503 10 534 63 625 75 127 213
202 324 175 89 -21 143 -83 179 -207 14 -49 17 -133 22 -563 l6 -505 24 -48
c15 -30 38 -58 64 -75 38 -25 48 -27 153 -27 109 0 114 1 156 30 27 19 52 48
68 80 l25 50 0 570 c0 637 1 629 -72 767 -70 133 -194 230 -339 264 -99 23
-333 15 -425 -15 -65 -21 -156 -74 -214 -125 l-30 -26 -5 328 c-4 281 -7 332
-22 365 -49 108 -97 136 -233 137 -70 0 -99 -4 -130 -20z"/>
<path d="M5949 5292 c-163 -85 -151 -328 18 -386 53 -18 170 -21 226 -5 43 11
101 59 121 98 38 74 27 181 -26 246 -47 56 -96 75 -199 75 -76 0 -94 -4 -140
-28z"/>
<path d="M6944 5261 c-23 -10 -54 -35 -69 -54 -47 -63 -55 -110 -55 -342 l0
-212 -76 -5 c-83 -6 -113 -21 -151 -78 -30 -43 -31 -120 -4 -164 30 -48 74
-69 158 -74 l73 -5 0 -506 c1 -388 4 -524 15 -585 44 -250 192 -336 554 -323
281 10 406 69 419 196 6 68 -34 139 -92 161 -36 13 -124 12 -212 -4 -89 -16
-130 -4 -159 45 -19 33 -20 55 -23 527 l-3 492 78 0 c87 0 179 19 217 44 63
41 73 143 21 212 -40 53 -76 64 -204 64 l-109 0 -4 228 c-3 189 -7 234 -21
267 -24 53 -63 93 -112 116 -55 26 -184 26 -241 0z"/>
<path d="M5964 4676 c-43 -19 -83 -62 -108 -115 -21 -45 -21 -54 -21 -756 0
-572 3 -717 14 -748 18 -52 67 -106 116 -128 46 -21 157 -25 218 -8 50 14 106
64 131 119 21 44 21 60 24 729 2 468 -1 701 -8 737 -13 59 -52 120 -101 155
-29 20 -47 24 -134 27 -70 1 -109 -2 -131 -12z"/>
<path d="M12740 4671 c-333 -71 -548 -297 -626 -657 -23 -108 -23 -331 1 -439
55 -260 207 -466 419 -570 132 -66 222 -86 401 -92 342 -12 586 86 750 302
101 133 155 280 176 473 32 309 -64 600 -259 784 -117 110 -238 171 -402 202
-115 22 -348 20 -460 -3z m377 -352 c102 -49 179 -155 219 -300 23 -81 26
-345 5 -429 -78 -318 -372 -444 -584 -250 -60 55 -107 139 -134 240 -25 92
-25 339 0 430 38 141 107 246 195 297 102 60 193 64 299 12z"/>
<path d="M14165 4676 c-40 -17 -90 -75 -105 -121 -7 -23 -10 -57 -6 -86 9 -63
427 -1302 472 -1396 62 -130 138 -170 305 -161 139 8 184 43 243 192 15 37 77
242 137 455 60 212 112 394 115 405 3 10 10 14 14 10 5 -5 63 -198 130 -429
68 -231 135 -447 150 -480 31 -70 91 -129 147 -144 50 -14 191 -14 234 0 83
28 131 87 180 219 89 243 437 1282 443 1323 13 84 -30 169 -104 207 -29 15
-59 20 -119 20 -115 0 -162 -23 -201 -100 -10 -19 -79 -244 -155 -500 -75
-256 -142 -473 -147 -484 -5 -10 -13 -14 -17 -10 -5 5 -56 180 -116 389 -159
559 -173 598 -245 658 -47 40 -91 50 -205 45 -90 -3 -107 -7 -141 -29 -84 -56
-86 -61 -258 -659 -74 -258 -118 -395 -126 -395 -9 0 -60 158 -147 455 -146
497 -180 587 -237 614 -42 20 -197 21 -241 2z"/>
</g>
</svg>
